<?xml version="1.0" encoding="UTF-8"?>
<svg version="1.1" xmlns="http://www.w3.org/2000/svg" width="359" height="326">
<path d="M0 0 C118.47 0 236.94 0 359 0 C359 107.58 359 215.16 359 326 C240.53 326 122.06 326 0 326 C0 218.42 0 110.84 0 0 Z " fill="#FEFEFE" transform="translate(0,0)"/>
<path d="M0 0 C0.79757721 -0.00902847 1.59515442 -0.01805695 2.41690063 -0.02735901 C4.09951038 -0.04182509 5.7821759 -0.05073917 7.46484375 -0.05444336 C10.02441174 -0.06633817 12.58156526 -0.11555321 15.140625 -0.16601562 C16.78123832 -0.17548151 18.42186635 -0.18271576 20.0625 -0.1875 C21.19877335 -0.21679848 21.19877335 -0.21679848 22.35800171 -0.24668884 C27.42635634 -0.20414768 30.26004155 0.95792733 34.18496704 4.1749115 C37.96500533 7.23192494 41.91118311 7.57894719 46.6640625 8.37109375 C46.6640625 14.64109375 46.6640625 20.91109375 46.6640625 27.37109375 C44.3540625 28.69109375 42.0440625 30.01109375 39.6640625 31.37109375 C36.01397783 35.25666776 36.1616377 39.61590634 36.3125 44.7109375 C36.95623462 49.5818628 39.24786313 52.19092761 42.9140625 55.24609375 C48.09558049 57.36580566 52.24216412 56.82136157 57.4140625 55.18359375 C61.85689845 52.70585832 64.05915356 50.18582057 65.6640625 45.37109375 C66.0410934 40.77131681 66.14128447 38.34462658 64.1015625 34.18359375 C61.92875382 31.67650681 60.78685209 30.82333393 58.0390625 29.27734375 C55.79767943 27.71144599 54.8206651 26.94696329 54.09594727 24.28198242 C53.97527899 21.84029937 54.05145124 19.49668125 54.2265625 17.05859375 C54.25814453 16.22263672 54.28972656 15.38667969 54.32226562 14.52539062 C54.4043837 12.47243869 54.52993655 10.42130477 54.6640625 8.37109375 C55.44910156 8.21253906 56.23414063 8.05398437 57.04296875 7.890625 C58.61884766 7.54064453 58.61884766 7.54064453 60.2265625 7.18359375 C61.25910156 6.96316406 62.29164063 6.74273437 63.35546875 6.515625 C66.34448256 5.48164502 67.53769529 4.7647338 69.86938477 2.83886719 C73.66525679 0.07251113 77.06641421 -0.34518499 81.6875 -0.2578125 C82.43311188 -0.26022446 83.17872375 -0.26263641 83.94692993 -0.26512146 C85.51513007 -0.26414763 87.08336659 -0.25086511 88.65136719 -0.22583008 C91.02660502 -0.19158585 93.39809908 -0.20517568 95.7734375 -0.22460938 C103.6856661 -0.21681105 110.80262774 -0.03861246 117.6640625 4.37109375 C118.22955811 4.72905029 118.79505371 5.08700684 119.37768555 5.45581055 C123.67025759 8.58429525 126.25074882 12.31790517 127.6640625 17.37109375 C128.62580095 24.99309565 128.59781542 31.90813251 124.28515625 38.46875 C119.91389386 43.59840008 115.13672771 46.5680981 108.6640625 48.37109375 C105.9509884 48.53310472 103.34850566 48.60562428 100.640625 48.56640625 C99.89444916 48.56357635 99.14827332 48.56074646 98.37948608 48.55783081 C96.01584262 48.54671062 93.65258982 48.52162196 91.2890625 48.49609375 C89.67839092 48.48605337 88.06771335 48.47692937 86.45703125 48.46875 C82.52589306 48.44679815 78.59504383 48.4123256 74.6640625 48.37109375 C74.69024658 49.37897949 74.71643066 50.38686523 74.7434082 51.42529297 C74.83474491 55.20842794 74.89161011 58.99146809 74.9387207 62.77539062 C74.96367692 64.40478978 74.99765504 66.03407917 75.04125977 67.66308594 C75.3277639 78.65136228 75.19766093 87.27932366 67.41796875 95.84375 C59.95101902 101.26094882 59.95101902 101.26094882 54.6640625 101.37109375 C53.61412109 101.44263672 53.61412109 101.44263672 52.54296875 101.515625 C44.22688452 101.89426627 38.86228361 98.83684709 32.55859375 93.67578125 C25.44519065 85.02236305 26.18085756 75.42931858 26.4140625 64.80859375 C26.43416053 63.21161097 26.45240545 61.61460373 26.46875 60.01757812 C26.51247985 56.13480494 26.5813218 52.25322353 26.6640625 48.37109375 C25.64570313 48.39204102 24.62734375 48.41298828 23.578125 48.43457031 C19.76886274 48.50744059 15.959661 48.55306255 12.14990234 48.59082031 C10.506893 48.61082946 8.86395391 48.63804588 7.22119141 48.67285156 C4.84780462 48.7218468 2.47536601 48.74416879 0.1015625 48.76171875 C-0.98487549 48.79268646 -0.98487549 48.79268646 -2.09326172 48.82427979 C-8.56018662 48.82707046 -13.6377839 46.6872079 -18.54296875 42.4765625 C-23.91531141 36.05850837 -27.00867924 30.46761486 -26.671875 21.91796875 C-25.61090589 13.87434249 -21.67418707 9.18402164 -15.65234375 4 C-10.63478566 0.47163285 -6.01323508 0.04234337 0 0 Z " fill="#F04F4F" transform="translate(121.3359375,109.62890625)"/>
<path d="M0 0 C4.46273094 3.49065094 7.1015551 7.26969974 8.203125 12.796875 C8.85397786 20.76715516 8.9053817 28.05302225 4.203125 34.796875 C-0.5454035 40.07072878 -5.93877267 44.14912802 -13.140625 45.109375 C-20.37021209 45.46639165 -26.31519038 43.8526448 -31.80859375 39.03125 C-37.60926154 32.8535996 -39.89543057 27.22811776 -40.234375 18.796875 C-39.9659941 10.58029065 -37.41309427 6.07532984 -31.546875 0.421875 C-21.80094449 -7.71302608 -10.17915462 -6.81560788 0 0 Z " fill="#A10303" transform="translate(187.796875,62.203125)"/>
<path d="M0 0 C11.27272727 0 11.27272727 0 16 4 C17.55985209 5.55985209 17.24452344 7.08906098 17.3125 9.25 C17.27906784 12.74923295 17.06224051 13.89698122 15.1875 17 C10.36782614 21.40655896 7.22024536 20 0 20 C0 13.4 0 6.8 0 0 Z " fill="#A30808" transform="translate(88,226)"/>
<path d="M0 0 C3.8425303 0.72047443 5.45767292 1.57152696 8 4.5625 C8.66017005 7.36391726 8.60984064 9.75493175 8 12.5625 C6.4375 15.0625 6.4375 15.0625 4 16.5625 C0.5625 17.125 0.5625 17.125 -3 16.5625 C-6.38121991 14.11651113 -7.76936783 12.66953441 -8.625 8.5625 C-7.58351809 3.56338683 -5.03644185 0.94433285 0 0 Z " fill="#A51010" transform="translate(169,229.4375)"/>
<path d="M0 0 C3.32274404 2.45594125 4.77618008 3.9256644 5.625 8 C4.76936783 12.10703441 3.38121991 13.55401113 0 16 C-3.95779649 16.62491523 -6.00863886 16.61006839 -9.4375 14.5 C-11.33241448 11.46813683 -11.64036692 9.43919544 -11.44921875 5.90625 C-11 4 -11 4 -8.875 1.5 C-5.46714413 -0.27801176 -3.78454468 -0.70960213 0 0 Z " fill="#A50F0F" transform="translate(118,230)"/>
<path d="M0 0 C2.5 1.625 2.5 1.625 4 4 C4.63656938 7.73984509 4.25584708 9.50962644 2.5 12.875 C-0.52915683 15.44978331 -2.20650771 15.74545844 -6.09375 15.484375 C-8 15 -8 15 -10.5 12.875 C-12.25584708 9.50962644 -12.63656938 7.73984509 -12 4 C-9.04906701 -0.67231057 -5.10537385 -1.0252595 0 0 Z " fill="#A40A0A" transform="translate(176,144)"/>
<path d="M0 0 C3.11563317 1.09963524 4.4462843 2.92254607 6.05859375 5.7265625 C6.05859375 6.0565625 6.05859375 6.3865625 6.05859375 6.7265625 C3.18359375 6.8515625 3.18359375 6.8515625 0.05859375 6.7265625 C-0.60140625 6.0665625 -1.26140625 5.4065625 -1.94140625 4.7265625 C-4.54421193 5.04697647 -4.54421193 5.04697647 -6.94140625 5.7265625 C-7.61814072 9.12977184 -7.61814072 9.12977184 -7.94140625 12.7265625 C-6.04385481 15.07630068 -6.04385481 15.07630068 -2.81640625 14.8515625 C-1.39328125 14.7896875 -1.39328125 14.7896875 0.05859375 14.7265625 C0.05859375 14.0665625 0.05859375 13.4065625 0.05859375 12.7265625 C1.70859375 12.7265625 3.35859375 12.7265625 5.05859375 12.7265625 C4.70252684 15.30804758 4.22531182 16.54701997 2.43359375 18.4765625 C-0.85123512 20.2054198 -3.27784653 20.05366605 -6.94140625 19.7265625 C-10.32172214 18.53888395 -10.87357442 17.82831025 -12.94140625 14.7265625 C-13.64910204 10.71174984 -13.98598994 6.55756281 -11.9140625 2.92578125 C-8.26811219 -0.65957154 -4.72713886 -0.81309977 0 0 Z " fill="#A40B0B" transform="translate(153.94140625,226.2734375)"/>
<path d="M0 0 C1.9375 1.25 1.9375 1.25 3 3 C3 4.65 3 6.3 3 8 C-0.3 8 -3.6 8 -7 8 C-7 8.99 -7 9.98 -7 11 C-3.7 10.67 -0.4 10.34 3 10 C1 14 1 14 -1 15 C-4.79877599 15.35173852 -7.14360153 15.52701444 -10.4375 13.5 C-12.33148168 10.46962931 -12.64334247 8.44169066 -12.4453125 4.91015625 C-12 3 -12 3 -9.9375 0.4375 C-6.10852228 -1.43625505 -4.06665724 -1.12962701 0 0 Z " fill="#AA1C1C" transform="translate(227,231)"/>
<path d="M0 0 C9.72727273 0 9.72727273 0 14 1 C16.35119399 4.52679099 16.21443452 6.02879485 16.125 10.1875 C16.10695312 11.27417969 16.08890625 12.36085937 16.0703125 13.48046875 C16.04710937 14.31191406 16.02390625 15.14335937 16 16 C14.35 16 12.7 16 11 16 C11 12.37 11 8.74 11 5 C9.35 5 7.7 5 6 5 C5.67 8.63 5.34 12.26 5 16 C3.35 16 1.7 16 0 16 C0 10.72 0 5.44 0 0 Z " fill="#AB1D1D" transform="translate(179,230)"/>
<path d="M0 0 C2 2 2 2 2.1953125 5.0390625 C2.17210937 6.22242188 2.14890625 7.40578125 2.125 8.625 C2.10695312 9.81351563 2.08890625 11.00203125 2.0703125 12.2265625 C2.04710937 13.14179688 2.02390625 14.05703125 2 15 C0.35 15 -1.3 15 -3 15 C-3.33 11.37 -3.66 7.74 -4 4 C-5.32 4.33 -6.64 4.66 -8 5 C-8.33 8.3 -8.66 11.6 -9 15 C-10.32 15 -11.64 15 -13 15 C-13 10.05 -13 5.1 -13 0 C-4.65833333 -1.19166667 -4.65833333 -1.19166667 0 0 Z " fill="#A71313" transform="translate(211,231)"/>
<path d="M0 0 C2.375 1.3125 2.375 1.3125 4 3 C4 3.99 4 4.98 4 6 C1 6 -2 6 -5 6 C-5 7.65 -5 9.3 -5 11 C-3.68 11.33 -2.36 11.66 -1 12 C-1 11.34 -1 10.68 -1 10 C0.98 10 2.96 10 5 10 C3.84826645 12.46800047 2.95216435 14.04783565 1 16 C-2.5353266 16.32734506 -5.03849987 16.52865399 -8.1953125 14.79296875 C-10 13 -10 13 -10.53125 10.625 C-10.5209375 9.75875 -10.510625 8.8925 -10.5 8 C-10.5103125 7.13375 -10.520625 6.2675 -10.53125 5.375 C-10 3 -10 3 -8.15625 1.2109375 C-5.22757671 -0.43378844 -3.31138477 -0.4139231 0 0 Z " fill="#A71313" transform="translate(242,230)"/>
<path d="M0 0 C1.9375 1.4375 1.9375 1.4375 3 3 C3 3.66 3 4.32 3 5 C-0.19902639 5.08886184 -2.92677456 4.91058531 -6 4 C-6 5.98 -6 7.96 -6 10 C-3.36 10 -0.72 10 2 10 C1.625 11.9375 1.625 11.9375 1 14 C-2.09173752 15.54586876 -4.59429552 15.29359521 -8 15 C-10.4375 13.5 -10.4375 13.5 -12 11 C-12.61014545 8.1910285 -12.65360928 5.80363979 -12 3 C-8.3655827 -1.51548816 -5.40521016 -1.50144727 0 0 Z " fill="#A50D0D" transform="translate(136,231)"/>
<path d="M0 0 C1.32 0 2.64 0 4 0 C4 1.32 4 2.64 4 4 C4.99 4 5.98 4 7 4 C7 4.99 7 5.98 7 7 C6.01 7 5.02 7 4 7 C4 9.64 4 12.28 4 15 C4.99 15 5.98 15 7 15 C7 16.32 7 17.64 7 19 C4.625 19.125 4.625 19.125 2 19 C0 17 0 17 -0.1953125 14.6171875 C-0.17210937 13.71226562 -0.14890625 12.80734375 -0.125 11.875 C-0.10695312 10.96492187 -0.08890625 10.05484375 -0.0703125 9.1171875 C-0.04710937 8.41851562 -0.02390625 7.71984375 0 7 C-0.66 7 -1.32 7 -2 7 C-2 6.01 -2 5.02 -2 4 C-1.34 4 -0.68 4 0 4 C0 2.68 0 1.36 0 0 Z " fill="#A00202" transform="translate(250,227)"/>
<path d="M0 0 C6.875 0.875 6.875 0.875 8 2 C8.37086093 7.8410596 8.37086093 7.8410596 8 10 C5 12 5 12 0 12 C0 8.04 0 4.08 0 0 Z " fill="#F5E4E4" transform="translate(92,230)"/>
<path d="M0 0 C0.33 0 0.66 0 1 0 C1.33 2.97 1.66 5.94 2 9 C0.02 9.99 0.02 9.99 -2 11 C-2 10.01 -2 9.02 -2 8 C-3.9490625 8.2784375 -3.9490625 8.2784375 -5.9375 8.5625 C-8.15234375 8.87890625 -8.15234375 8.87890625 -10 9 C-11 8 -11 8 -11.0625 4.9375 C-11.041875 3.968125 -11.02125 2.99875 -11 2 C-9.0625 1.4375 -9.0625 1.4375 -7 1 C-6.67 1.33 -6.34 1.66 -6 2 C-4.33382885 2.04063832 -2.66611905 2.042721 -1 2 C-0.67 1.34 -0.34 0.68 0 0 Z " fill="#FBF6F6" transform="translate(140,233)"/>
<path d="M0 0 C2.31 0 4.62 0 7 0 C6.5359375 0.928125 6.5359375 0.928125 6.0625 1.875 C4.5960722 6.18802294 4.33380974 10.4759996 4 15 C2.68 15 1.36 15 0 15 C0 10.05 0 5.1 0 0 Z " fill="#A10303" transform="translate(198,231)"/>
<path d="M0 0 C0.99 0 1.98 0 3 0 C4.44207941 2.88415883 4.09394887 5.41721528 4.0625 8.625 C4.05347656 9.81351563 4.04445312 11.00203125 4.03515625 12.2265625 C4.02355469 13.14179688 4.01195312 14.05703125 4 15 C2.68 15 1.36 15 0 15 C0 10.05 0 5.1 0 0 Z " fill="#A20505" transform="translate(180,231)"/>
<path d="M0 0 C2.125 0.375 2.125 0.375 4 1 C4 2.98 4 4.96 4 7 C2.34385343 7.38218767 0.67542976 7.71395102 -1 8 C-2 7 -2 7 -2.1875 4.5625 C-2 2 -2 2 0 0 Z " fill="#F8ECEC" transform="translate(168,234)"/>
<path d="M0 0 C0 1.98 0 3.96 0 6 C-1.65614657 6.38218767 -3.32457024 6.71395102 -5 7 C-6 6 -6 6 -6.0625 2.9375 C-6.041875 1.968125 -6.02125 0.99875 -6 0 C-3.50907189 -1.24546405 -2.58919267 -0.7767578 0 0 Z " fill="#F8EDED" transform="translate(118,235)"/>
<path d="M0 0 C0.66 0 1.32 0 2 0 C2 2.31 2 4.62 2 7 C-1.96 7 -5.92 7 -10 7 C-10 6.01 -10 5.02 -10 4 C-6.7 4 -3.4 4 0 4 C0 2.68 0 1.36 0 0 Z " fill="#E7BEBE" transform="translate(230,235)"/>
<path d="M0 0 C0.33 0 0.66 0 1 0 C1.33 2.97 1.66 5.94 2 9 C0.02 9.99 0.02 9.99 -2 11 C-2 10.01 -2 9.02 -2 8 C-3.32 7.67 -4.64 7.34 -6 7 C-4.02 7 -2.04 7 0 7 C0 4.69 0 2.38 0 0 Z " fill="#DFA9A9" transform="translate(140,233)"/>
</svg>
